<mxfile host="www.draw.io" modified="2020-02-27T15:16:38.254Z" agent="Mozilla/5.0 (X11; Linux x86_64) AppleWebKit/537.36 (KHTML, like Gecko) Chrome/80.0.3987.116 Safari/537.36" etag="kAnR39n6DMnpKGqml056" version="12.7.8" type="github">
  <diagram name="Page-1" id="efa7a0a1-bf9b-a30e-e6df-94a7791c09e9">
    <mxGraphModel dx="1408" dy="2048" grid="1" gridSize="10" guides="1" tooltips="1" connect="1" arrows="1" fold="1" page="1" pageScale="1" pageWidth="826" pageHeight="1169" background="#ffffff" math="0" shadow="0">
      <root>
        <mxCell id="0" />
        <mxCell id="1" parent="0" />
        <mxCell id="21" value="&lt;p style=&quot;margin: 4px 0px 0px ; text-align: center&quot;&gt;&lt;font size=&quot;1&quot;&gt;&lt;b style=&quot;font-size: 14px&quot;&gt;Transport&lt;/b&gt;&lt;/font&gt;&lt;/p&gt;&lt;hr&gt;&lt;div align=&quot;center&quot;&gt;&lt;table align=&quot;center&quot;&gt;&lt;tbody&gt;&lt;tr style=&quot;font-size: 16px&quot;&gt;&lt;td&gt;&lt;b&gt;&lt;br&gt;RPMsg&lt;/b&gt;&lt;br&gt;&lt;/td&gt;&lt;/tr&gt;&lt;/tbody&gt;&lt;/table&gt;&lt;/div&gt;" style="verticalAlign=top;align=left;overflow=fill;fontSize=12;fontFamily=Helvetica;html=1;strokeColor=#003366;shadow=1;fillColor=#D4E1F5;fontColor=#003366;glass=0;rounded=1;comic=0;" parent="1" vertex="1">
          <mxGeometry x="130" y="550" width="160" height="110" as="geometry" />
        </mxCell>
        <mxCell id="25" value="&lt;p style=&quot;margin: 4px 0px 0px ; text-align: center&quot;&gt;&lt;font size=&quot;1&quot;&gt;&lt;b style=&quot;font-size: 14px&quot;&gt;RP serialization&lt;br&gt;&lt;/b&gt;&lt;/font&gt;&lt;/p&gt;&lt;hr&gt;&lt;p style=&quot;margin: 0px 0px 0px 8px ; font-size: 11px&quot; align=&quot;center&quot;&gt;&lt;font style=&quot;font-size: 11px&quot;&gt;Serialization core&lt;/font&gt;&lt;/p&gt;&lt;p style=&quot;margin: 0px 0px 0px 8px ; font-size: 11px&quot; align=&quot;center&quot;&gt;&lt;font style=&quot;font-size: 11px&quot;&gt;&lt;br&gt;&lt;/font&gt;&lt;/p&gt;&lt;p style=&quot;margin: 0px 0px 0px 8px ; font-size: 11px&quot; align=&quot;center&quot;&gt;&lt;font style=&quot;font-size: 11px&quot;&gt;Dispatcher&lt;/font&gt;&lt;/p&gt;&lt;p style=&quot;margin: 0px 0px 0px 8px ; font-size: 11px&quot; align=&quot;center&quot;&gt;&lt;font style=&quot;font-size: 11px&quot;&gt;&lt;br&gt;&lt;/font&gt;&lt;/p&gt;&lt;p style=&quot;margin: 0px 0px 0px 8px ; font-size: 11px&quot; align=&quot;center&quot;&gt;&lt;font style=&quot;font-size: 11px&quot;&gt;Transport abstraction&lt;/font&gt;&lt;/p&gt;&lt;p style=&quot;margin: 0px 0px 0px 8px ; font-size: 11px&quot; align=&quot;center&quot;&gt;&lt;font style=&quot;font-size: 11px&quot;&gt;&lt;br&gt;&lt;/font&gt;&lt;/p&gt;&lt;p style=&quot;margin: 0px 0px 0px 8px ; font-size: 11px&quot; align=&quot;center&quot;&gt;&lt;font style=&quot;font-size: 11px&quot;&gt;Decoders register&lt;/font&gt;&lt;/p&gt;&lt;p style=&quot;margin: 0px 0px 0px 8px ; font-size: 11px&quot; align=&quot;center&quot;&gt;&lt;font style=&quot;font-size: 11px&quot;&gt;&lt;br&gt;&lt;/font&gt;&lt;/p&gt;&lt;p style=&quot;margin: 0px 0px 0px 8px ; font-size: 11px&quot; align=&quot;center&quot;&gt;&lt;font style=&quot;font-size: 11px&quot;&gt;Function calls create helper&lt;br&gt;&lt;/font&gt;&lt;/p&gt;&lt;p style=&quot;margin: 0px ; margin-left: 8px&quot; align=&quot;center&quot;&gt;&lt;br&gt;&lt;/p&gt;" style="verticalAlign=top;align=left;overflow=fill;fontSize=12;fontFamily=Helvetica;html=1;strokeColor=#003366;shadow=1;fillColor=#D4E1F5;fontColor=#003366;rounded=1;" parent="1" vertex="1">
          <mxGeometry x="350" y="120" width="160" height="160" as="geometry" />
        </mxCell>
        <mxCell id="hzTVODMIwVcw8zMCKMNO-117" value="&lt;p style=&quot;margin: 4px 0px 0px ; text-align: center&quot;&gt;&lt;font size=&quot;1&quot;&gt;&lt;b style=&quot;font-size: 14px&quot;&gt;Transport&lt;/b&gt;&lt;/font&gt;&lt;/p&gt;&lt;hr&gt;&lt;div align=&quot;center&quot;&gt;&lt;table align=&quot;center&quot;&gt;&lt;tbody&gt;&lt;tr style=&quot;font-size: 16px&quot;&gt;&lt;td&gt;&lt;b&gt;&lt;br&gt;UART&lt;/b&gt;&lt;br&gt;&lt;/td&gt;&lt;/tr&gt;&lt;/tbody&gt;&lt;/table&gt;&lt;/div&gt;" style="verticalAlign=top;align=left;overflow=fill;fontSize=12;fontFamily=Helvetica;html=1;strokeColor=#003366;shadow=1;fillColor=#D4E1F5;fontColor=#003366;glass=0;rounded=1;comic=0;" parent="1" vertex="1">
          <mxGeometry x="350" y="550" width="160" height="110" as="geometry" />
        </mxCell>
        <mxCell id="hzTVODMIwVcw8zMCKMNO-118" value="&lt;p style=&quot;margin: 4px 0px 0px ; text-align: center&quot;&gt;&lt;font size=&quot;1&quot;&gt;&lt;b style=&quot;font-size: 14px&quot;&gt;Transport&lt;/b&gt;&lt;/font&gt;&lt;/p&gt;&lt;hr&gt;&lt;div align=&quot;center&quot;&gt;&lt;table align=&quot;center&quot;&gt;&lt;tbody&gt;&lt;tr style=&quot;font-size: 16px&quot;&gt;&lt;td&gt;&lt;b&gt;&lt;br&gt;Other&lt;/b&gt;&lt;br&gt;&lt;/td&gt;&lt;/tr&gt;&lt;/tbody&gt;&lt;/table&gt;&lt;/div&gt;" style="verticalAlign=top;align=left;overflow=fill;fontSize=12;fontFamily=Helvetica;html=1;strokeColor=#003366;shadow=1;fillColor=#D4E1F5;fontColor=#003366;glass=0;rounded=1;comic=0;" parent="1" vertex="1">
          <mxGeometry x="570" y="550" width="160" height="110" as="geometry" />
        </mxCell>
        <mxCell id="hzTVODMIwVcw8zMCKMNO-119" value="" style="endArrow=none;html=1;exitX=0.5;exitY=0;exitDx=0;exitDy=0;" parent="1" source="hzTVODMIwVcw8zMCKMNO-117" edge="1">
          <mxGeometry width="50" height="50" relative="1" as="geometry">
            <mxPoint x="440" y="430" as="sourcePoint" />
            <mxPoint x="430" y="400" as="targetPoint" />
          </mxGeometry>
        </mxCell>
        <mxCell id="hzTVODMIwVcw8zMCKMNO-123" value="" style="endArrow=none;html=1;" parent="1" source="21" edge="1">
          <mxGeometry width="50" height="50" relative="1" as="geometry">
            <mxPoint x="190" y="420" as="sourcePoint" />
            <mxPoint x="209.5" y="400" as="targetPoint" />
          </mxGeometry>
        </mxCell>
        <mxCell id="hzTVODMIwVcw8zMCKMNO-124" value="" style="endArrow=none;html=1;exitX=0.5;exitY=0;exitDx=0;exitDy=0;" parent="1" source="hzTVODMIwVcw8zMCKMNO-118" edge="1">
          <mxGeometry width="50" height="50" relative="1" as="geometry">
            <mxPoint x="649.58" y="460" as="sourcePoint" />
            <mxPoint x="649.58" y="400" as="targetPoint" />
          </mxGeometry>
        </mxCell>
        <mxCell id="hzTVODMIwVcw8zMCKMNO-125" value="" style="endArrow=none;html=1;" parent="1" edge="1">
          <mxGeometry width="50" height="50" relative="1" as="geometry">
            <mxPoint x="210" y="400" as="sourcePoint" />
            <mxPoint x="650" y="400" as="targetPoint" />
          </mxGeometry>
        </mxCell>
        <mxCell id="hzTVODMIwVcw8zMCKMNO-134" value="" style="endArrow=none;dashed=1;html=1;exitX=1;exitY=0.5;exitDx=0;exitDy=0;" parent="1" source="hzTVODMIwVcw8zMCKMNO-143" edge="1">
          <mxGeometry width="50" height="50" relative="1" as="geometry">
            <mxPoint x="230" y="330" as="sourcePoint" />
            <mxPoint x="530" y="340" as="targetPoint" />
            <Array as="points">
              <mxPoint x="430" y="340" />
            </Array>
          </mxGeometry>
        </mxCell>
        <mxCell id="hzTVODMIwVcw8zMCKMNO-135" value="" style="endArrow=classic;startArrow=classic;html=1;" parent="1" edge="1">
          <mxGeometry width="50" height="50" relative="1" as="geometry">
            <mxPoint x="430" y="400" as="sourcePoint" />
            <mxPoint x="430" y="340" as="targetPoint" />
          </mxGeometry>
        </mxCell>
        <mxCell id="hzTVODMIwVcw8zMCKMNO-143" value="&lt;font style=&quot;font-size: 14px&quot; color=&quot;#003366&quot;&gt;&lt;b&gt;&lt;font style=&quot;font-size: 14px&quot;&gt;RP Transport API&lt;/font&gt;&lt;/b&gt;&lt;/font&gt;" style="rounded=1;whiteSpace=wrap;html=1;glass=0;comic=0;strokeColor=#000000;fillColor=#dae8fc;" parent="1" vertex="1">
          <mxGeometry x="200" y="306" width="150" height="68" as="geometry" />
        </mxCell>
        <mxCell id="hzTVODMIwVcw8zMCKMNO-184" value="" style="edgeStyle=none;orthogonalLoop=1;jettySize=auto;html=1;entryX=0.5;entryY=0;entryDx=0;entryDy=0;rounded=0;dashed=1;" parent="1" source="hzTVODMIwVcw8zMCKMNO-147" target="25" edge="1">
          <mxGeometry relative="1" as="geometry">
            <mxPoint x="430" y="-30" as="targetPoint" />
          </mxGeometry>
        </mxCell>
        <mxCell id="hzTVODMIwVcw8zMCKMNO-189" value="Use" style="text;html=1;align=center;verticalAlign=middle;resizable=0;points=[];labelBackgroundColor=#ffffff;" parent="hzTVODMIwVcw8zMCKMNO-184" vertex="1" connectable="0">
          <mxGeometry x="0.618" y="1" relative="1" as="geometry">
            <mxPoint x="-1" y="-27" as="offset" />
          </mxGeometry>
        </mxCell>
        <mxCell id="hzTVODMIwVcw8zMCKMNO-147" value="&lt;p style=&quot;margin: 4px 0px 0px ; text-align: center&quot;&gt;&lt;font size=&quot;1&quot;&gt;&lt;b style=&quot;font-size: 14px&quot;&gt;Serializer&lt;/b&gt;&lt;/font&gt;&lt;/p&gt;&lt;hr&gt;&lt;div align=&quot;center&quot;&gt;&lt;table align=&quot;center&quot;&gt;&lt;tbody&gt;&lt;tr style=&quot;font-size: 16px&quot;&gt;&lt;td&gt;&lt;b&gt;TinyCBOR&lt;/b&gt;&lt;br&gt;&lt;/td&gt;&lt;/tr&gt;&lt;/tbody&gt;&lt;/table&gt;&lt;/div&gt;" style="verticalAlign=top;align=left;overflow=fill;fontSize=12;fontFamily=Helvetica;html=1;strokeColor=#003366;shadow=1;fillColor=#D4E1F5;fontColor=#003366;glass=0;rounded=1;comic=0;" parent="1" vertex="1">
          <mxGeometry x="360" y="-30" width="140" height="80" as="geometry" />
        </mxCell>
        <mxCell id="hzTVODMIwVcw8zMCKMNO-155" style="edgeStyle=none;rounded=0;orthogonalLoop=1;jettySize=auto;html=1;exitX=0;exitY=0.5;exitDx=0;exitDy=0;entryX=1;entryY=0.25;entryDx=0;entryDy=0;" parent="1" source="hzTVODMIwVcw8zMCKMNO-154" target="25" edge="1">
          <mxGeometry relative="1" as="geometry">
            <Array as="points">
              <mxPoint x="550" y="105" />
              <mxPoint x="550" y="160" />
            </Array>
          </mxGeometry>
        </mxCell>
        <mxCell id="hzTVODMIwVcw8zMCKMNO-154" value="&lt;p style=&quot;margin: 4px 0px 0px ; text-align: center&quot;&gt;&lt;font size=&quot;1&quot;&gt;&lt;b style=&quot;font-size: 14px&quot;&gt;Os abstraction&lt;br&gt;&lt;/b&gt;&lt;/font&gt;&lt;/p&gt;&lt;hr&gt;&lt;ul&gt;&lt;li&gt;Os signal set&lt;/li&gt;&lt;li&gt;Os signal wait&lt;br&gt;&lt;/li&gt;&lt;/ul&gt;" style="verticalAlign=top;align=left;overflow=fill;fontSize=12;fontFamily=Helvetica;html=1;strokeColor=#003366;shadow=1;fillColor=#D4E1F5;fontColor=#003366;rounded=1;" parent="1" vertex="1">
          <mxGeometry x="590" y="60" width="140" height="90" as="geometry" />
        </mxCell>
        <mxCell id="hzTVODMIwVcw8zMCKMNO-160" style="edgeStyle=none;rounded=0;orthogonalLoop=1;jettySize=auto;html=1;exitX=0;exitY=0.5;exitDx=0;exitDy=0;entryX=1;entryY=0.75;entryDx=0;entryDy=0;" parent="1" source="hzTVODMIwVcw8zMCKMNO-159" target="25" edge="1">
          <mxGeometry relative="1" as="geometry">
            <Array as="points">
              <mxPoint x="560" y="284" />
              <mxPoint x="560" y="240" />
            </Array>
          </mxGeometry>
        </mxCell>
        <mxCell id="hzTVODMIwVcw8zMCKMNO-159" value="&lt;font style=&quot;font-size: 14px&quot; color=&quot;#003366&quot;&gt;&lt;b&gt;&lt;font style=&quot;font-size: 14px&quot;&gt;Logger abstraction&lt;br&gt;&lt;/font&gt;&lt;/b&gt;&lt;/font&gt;" style="rounded=1;whiteSpace=wrap;html=1;glass=0;comic=0;strokeColor=#000000;fillColor=#dae8fc;" parent="1" vertex="1">
          <mxGeometry x="590" y="250" width="140" height="68" as="geometry" />
        </mxCell>
        <mxCell id="hzTVODMIwVcw8zMCKMNO-167" style="edgeStyle=none;rounded=0;orthogonalLoop=1;jettySize=auto;html=1;entryX=0.133;entryY=-0.011;entryDx=0;entryDy=0;entryPerimeter=0;exitX=0.5;exitY=1;exitDx=0;exitDy=0;" parent="1" source="hzTVODMIwVcw8zMCKMNO-164" edge="1">
          <mxGeometry relative="1" as="geometry">
            <mxPoint x="369.28" y="118.24000000000001" as="targetPoint" />
            <Array as="points">
              <mxPoint x="288" y="80" />
              <mxPoint x="369" y="80" />
            </Array>
            <mxPoint x="288" y="-20" as="sourcePoint" />
          </mxGeometry>
        </mxCell>
        <mxCell id="hzTVODMIwVcw8zMCKMNO-164" value="&lt;p style=&quot;margin: 4px 0px 0px ; text-align: center&quot;&gt;&lt;font size=&quot;1&quot;&gt;&lt;b style=&quot;font-size: 14px&quot;&gt;Bluetooth&lt;/b&gt;&lt;/font&gt;&lt;/p&gt;&lt;p style=&quot;margin: 4px 0px 0px ; text-align: center&quot;&gt;&lt;font size=&quot;1&quot;&gt;&lt;b style=&quot;font-size: 14px&quot;&gt;serialization&lt;br&gt;&lt;/b&gt;&lt;/font&gt;&lt;/p&gt;&lt;hr&gt;&lt;div&gt;&lt;ul&gt;&lt;li&gt;Function call serialization&lt;/li&gt;&lt;li&gt;Function call decoder&lt;/li&gt;&lt;li&gt;Funcion call response parse&lt;/li&gt;&lt;li&gt;Event decoder&lt;/li&gt;&lt;/ul&gt;&lt;/div&gt;&lt;div&gt;&lt;br&gt;&lt;/div&gt;" style="verticalAlign=top;align=left;overflow=fill;fontSize=12;fontFamily=Helvetica;html=1;strokeColor=#003366;shadow=1;fillColor=#D4E1F5;fontColor=#003366;rounded=1;" parent="1" vertex="1">
          <mxGeometry x="182" y="-210" width="210" height="130" as="geometry" />
        </mxCell>
        <mxCell id="hzTVODMIwVcw8zMCKMNO-196" value="" style="edgeStyle=none;rounded=0;orthogonalLoop=1;jettySize=auto;html=1;entryX=0.875;entryY=0;entryDx=0;entryDy=0;entryPerimeter=0;exitX=0.525;exitY=0.997;exitDx=0;exitDy=0;exitPerimeter=0;" parent="1" source="hzTVODMIwVcw8zMCKMNO-166" target="25" edge="1">
          <mxGeometry relative="1" as="geometry">
            <mxPoint x="560" y="51" as="sourcePoint" />
            <mxPoint x="555" y="130" as="targetPoint" />
            <Array as="points">
              <mxPoint x="570" y="80" />
              <mxPoint x="490" y="80" />
            </Array>
          </mxGeometry>
        </mxCell>
        <mxCell id="hzTVODMIwVcw8zMCKMNO-166" value="&lt;p style=&quot;margin: 4px 0px 0px ; text-align: center&quot;&gt;&lt;font size=&quot;1&quot;&gt;&lt;b style=&quot;font-size: 14px&quot;&gt;User&lt;/b&gt;&lt;/font&gt;&lt;/p&gt;&lt;p style=&quot;margin: 4px 0px 0px ; text-align: center&quot;&gt;&lt;font size=&quot;1&quot;&gt;&lt;b style=&quot;font-size: 14px&quot;&gt;serialization&lt;br&gt;&lt;/b&gt;&lt;/font&gt;&lt;/p&gt;&lt;hr&gt;&lt;div&gt;&lt;ul&gt;&lt;li&gt;Function call serialization&lt;/li&gt;&lt;li&gt;Function call decoder&lt;/li&gt;&lt;li&gt;Function call response parse&lt;/li&gt;&lt;li&gt;Event decoder&lt;/li&gt;&lt;/ul&gt;&lt;/div&gt;&lt;div&gt;&lt;br&gt;&lt;/div&gt;" style="verticalAlign=top;align=left;overflow=fill;fontSize=12;fontFamily=Helvetica;html=1;strokeColor=#003366;shadow=1;fillColor=#D4E1F5;fontColor=#003366;rounded=1;" parent="1" vertex="1">
          <mxGeometry x="460" y="-210" width="210" height="130" as="geometry" />
        </mxCell>
        <mxCell id="hzTVODMIwVcw8zMCKMNO-173" value="Use" style="endArrow=classic;html=1;entryX=0.5;entryY=1;entryDx=0;entryDy=0;dashed=1;" parent="1" target="25" edge="1">
          <mxGeometry width="50" height="50" relative="1" as="geometry">
            <mxPoint x="430" y="340" as="sourcePoint" />
            <mxPoint x="270" y="220" as="targetPoint" />
            <Array as="points">
              <mxPoint x="430" y="310" />
            </Array>
          </mxGeometry>
        </mxCell>
        <mxCell id="hzTVODMIwVcw8zMCKMNO-178" value="" style="endArrow=classic;html=1;dashed=1;exitX=0.25;exitY=0;exitDx=0;exitDy=0;entryX=0.095;entryY=1;entryDx=0;entryDy=0;entryPerimeter=0;" parent="1" target="hzTVODMIwVcw8zMCKMNO-166" edge="1">
          <mxGeometry width="50" height="50" relative="1" as="geometry">
            <mxPoint x="480.37" y="-29.999999999999773" as="sourcePoint" />
            <mxPoint x="480" y="-70" as="targetPoint" />
          </mxGeometry>
        </mxCell>
        <mxCell id="hzTVODMIwVcw8zMCKMNO-179" value="Use" style="text;html=1;align=center;verticalAlign=middle;resizable=0;points=[];labelBackgroundColor=#ffffff;" parent="hzTVODMIwVcw8zMCKMNO-178" vertex="1" connectable="0">
          <mxGeometry x="0.3441" y="-1" relative="1" as="geometry">
            <mxPoint x="-1.0899999999999999" y="7.01" as="offset" />
          </mxGeometry>
        </mxCell>
        <mxCell id="hzTVODMIwVcw8zMCKMNO-193" value="" style="edgeStyle=none;rounded=0;orthogonalLoop=1;jettySize=auto;html=1;entryX=0;entryY=0.25;entryDx=0;entryDy=0;" parent="1" source="hzTVODMIwVcw8zMCKMNO-190" target="25" edge="1">
          <mxGeometry relative="1" as="geometry" />
        </mxCell>
        <mxCell id="hzTVODMIwVcw8zMCKMNO-190" value="&lt;div&gt;&lt;font color=&quot;#003366&quot;&gt;Functions dekoder&lt;/font&gt;&lt;/div&gt;&lt;div&gt;&lt;font color=&quot;#003366&quot;&gt;table&lt;br&gt;&lt;/font&gt;&lt;/div&gt;" style="rounded=0;whiteSpace=wrap;html=1;glass=0;comic=0;strokeColor=#000000;fillColor=#dae8fc;" parent="1" vertex="1">
          <mxGeometry x="190" y="130" width="120" height="60" as="geometry" />
        </mxCell>
        <mxCell id="hzTVODMIwVcw8zMCKMNO-194" value="" style="edgeStyle=none;rounded=0;orthogonalLoop=1;jettySize=auto;html=1;entryX=0;entryY=0.75;entryDx=0;entryDy=0;" parent="1" source="hzTVODMIwVcw8zMCKMNO-191" target="25" edge="1">
          <mxGeometry relative="1" as="geometry" />
        </mxCell>
        <mxCell id="hzTVODMIwVcw8zMCKMNO-191" value="&lt;div&gt;&lt;font color=&quot;#003366&quot;&gt;Events decoder&lt;/font&gt;&lt;/div&gt;&lt;div&gt;&lt;font color=&quot;#003366&quot;&gt;table&lt;/font&gt;&lt;br&gt;&lt;/div&gt;" style="rounded=0;whiteSpace=wrap;html=1;glass=0;comic=0;strokeColor=#000000;fillColor=#dae8fc;" parent="1" vertex="1">
          <mxGeometry x="190" y="210" width="120" height="60" as="geometry" />
        </mxCell>
        <mxCell id="jsOhlCd9X-9qNjyJw1FY-28" value="" style="endArrow=classic;html=1;dashed=1;exitX=0.25;exitY=0;exitDx=0;exitDy=0;entryX=0.895;entryY=1.004;entryDx=0;entryDy=0;entryPerimeter=0;" parent="1" target="hzTVODMIwVcw8zMCKMNO-164" edge="1">
          <mxGeometry width="50" height="50" relative="1" as="geometry">
            <mxPoint x="370.3699999999999" y="-29.999999999999773" as="sourcePoint" />
            <mxPoint x="370" y="-70" as="targetPoint" />
          </mxGeometry>
        </mxCell>
        <mxCell id="jsOhlCd9X-9qNjyJw1FY-29" value="Use" style="text;html=1;align=center;verticalAlign=middle;resizable=0;points=[];labelBackgroundColor=#ffffff;" parent="jsOhlCd9X-9qNjyJw1FY-28" vertex="1" connectable="0">
          <mxGeometry x="0.3441" y="-1" relative="1" as="geometry">
            <mxPoint y="7.01" as="offset" />
          </mxGeometry>
        </mxCell>
        <mxCell id="jsOhlCd9X-9qNjyJw1FY-30" value="" style="endArrow=classic;html=1;exitX=0.25;exitY=0;exitDx=0;exitDy=0;entryX=0.643;entryY=1.023;entryDx=0;entryDy=0;strokeColor=#000000;rounded=0;dashed=1;entryPerimeter=0;" parent="1" source="25" target="hzTVODMIwVcw8zMCKMNO-164" edge="1">
          <mxGeometry width="50" height="50" relative="1" as="geometry">
            <mxPoint x="170" y="90" as="sourcePoint" />
            <mxPoint x="220" y="40" as="targetPoint" />
            <Array as="points">
              <mxPoint x="390" y="60" />
              <mxPoint x="317" y="60" />
              <mxPoint x="317" y="-10" />
            </Array>
          </mxGeometry>
        </mxCell>
        <mxCell id="jsOhlCd9X-9qNjyJw1FY-38" value="Use" style="text;html=1;align=center;verticalAlign=middle;resizable=0;points=[];labelBackgroundColor=#ffffff;" parent="1" vertex="1" connectable="0">
          <mxGeometry x="320" y="30" as="geometry">
            <mxPoint x="-1" y="-27" as="offset" />
          </mxGeometry>
        </mxCell>
        <mxCell id="jsOhlCd9X-9qNjyJw1FY-40" value="&lt;font color=&quot;#003366&quot;&gt;&lt;b&gt;Transport multiplexer&lt;/b&gt;&lt;/font&gt;" style="rounded=0;whiteSpace=wrap;html=1;fillColor=#dae8fc;strokeColor=#000000;" parent="1" vertex="1">
          <mxGeometry x="370" y="450" width="120" height="60" as="geometry" />
        </mxCell>
        <mxCell id="jsOhlCd9X-9qNjyJw1FY-42" value="&lt;font color=&quot;#003366&quot;&gt;&lt;b&gt;Transport multiplexer&lt;/b&gt;&lt;/font&gt;" style="rounded=0;whiteSpace=wrap;html=1;fillColor=#dae8fc;strokeColor=#000000;" parent="1" vertex="1">
          <mxGeometry x="590" y="450" width="120" height="60" as="geometry" />
        </mxCell>
        <mxCell id="GaNzrG4OUb8JcvTXfsrH-26" value="" style="endArrow=classic;html=1;exitX=0.75;exitY=0;exitDx=0;exitDy=0;entryX=0.367;entryY=0.992;entryDx=0;entryDy=0;entryPerimeter=0;rounded=0;dashed=1;" parent="1" source="25" target="hzTVODMIwVcw8zMCKMNO-166" edge="1">
          <mxGeometry width="50" height="50" relative="1" as="geometry">
            <mxPoint x="520" y="70" as="sourcePoint" />
            <mxPoint x="570" y="20" as="targetPoint" />
            <Array as="points">
              <mxPoint x="470" y="60" />
              <mxPoint x="537" y="60" />
            </Array>
          </mxGeometry>
        </mxCell>
        <mxCell id="GaNzrG4OUb8JcvTXfsrH-27" value="Use" style="text;html=1;align=center;verticalAlign=middle;resizable=0;points=[];labelBackgroundColor=#ffffff;" parent="1" vertex="1" connectable="0">
          <mxGeometry x="540" y="30" as="geometry">
            <mxPoint x="-1" y="-27" as="offset" />
          </mxGeometry>
        </mxCell>
      </root>
    </mxGraphModel>
  </diagram>
</mxfile>
